<svg viewBox="0 0 1440 2200" xmlns="http://www.w3.org/2000/svg" id="WLC-Camunda-Architecture">
<defs>
  <pattern id="grid" width="40" height="40" patternUnits="userSpaceOnUse">
    <path d="M 40 0 L 0 0 0 40" fill="none" stroke="#ffffff" stroke-width="0.4" opacity="0.06"/>
  </pattern>
  <filter id="shadow" x="-5%" y="-5%" width="110%" height="120%">
    <feDropShadow dx="2" dy="4" stdDeviation="6" flood-color="#000000" flood-opacity="0.5"/>
  </filter>
  <marker id="arr" markerWidth="8" markerHeight="8" refX="6" refY="3" orient="auto">
    <path d="M0,0 L0,6 L8,3 z" fill="#2d3654"/>
  </marker>
</defs>
<rect x="0" y="0" width="1440" height="2200" rx="0" fill="#07090e"/>
<rect width="1440" height="2200" fill="url(#grid)"/>
<g id="Header">
<rect x="0" y="0" width="1440" height="80" rx="0" fill="#0c0f17"/>
<line x1="0" y1="80" x2="1440" y2="80" stroke="#1a2033" stroke-width="1"/>
<rect x="52" y="28" width="180" height="1" fill="#4f8ef7" opacity="0.6"/>
<text x="52" y="22" font-family="IBM Plex Mono, Courier New, monospace" font-size="9" letter-spacing="2" fill="#4f8ef7">SYSTEM ARCHITECTURE · v2.0</text>
<text x="52" y="55" font-family="Barlow, Inter, sans-serif" font-size="22" font-weight="900" fill="#ffffff" letter-spacing="-0.5">White-Label Component  ×  Camunda 8.7 On-Premises</text>
<text x="52" y="72" font-family="IBM Plex Mono, Courier New, monospace" font-size="8.5" fill="#6b7a9e">Dynamic JSON form engine · Orchestration variable split · Synchronous persistence · 5-call API bridge · Append-only audit · Hard datastore isolation</text>
<rect x="1292.5" y="20" width="89.5" height="18" rx="3" fill="#e8604c18" stroke="#e8604c80" stroke-width="0.8"/>
<text x="1337.25" y="32.5" font-family="IBM Plex Mono, Courier New, monospace" font-size="7.5" font-weight="500" fill="#e8604c" text-anchor="middle" letter-spacing="0.8">ON-PREMISES</text>
<rect x="1184.0" y="20" width="102.5" height="18" rx="3" fill="#a78bfa18" stroke="#a78bfa80" stroke-width="0.8"/>
<text x="1235.25" y="32.5" font-family="IBM Plex Mono, Courier New, monospace" font-size="7.5" font-weight="500" fill="#a78bfa" text-anchor="middle" letter-spacing="0.8">ZEEBE WORKERS</text>
<rect x="1088.5" y="20" width="89.5" height="18" rx="3" fill="#14b8a618" stroke="#14b8a680" stroke-width="0.8"/>
<text x="1133.25" y="32.5" font-family="IBM Plex Mono, Courier New, monospace" font-size="7.5" font-weight="500" fill="#14b8a6" text-anchor="middle" letter-spacing="0.8">CAMUNDA 8.7</text>
<rect x="973.5" y="20" width="109.0" height="18" rx="3" fill="#3ec97a18" stroke="#3ec97a80" stroke-width="0.8"/>
<text x="1028.0" y="32.5" font-family="IBM Plex Mono, Courier New, monospace" font-size="7.5" font-weight="500" fill="#3ec97a" text-anchor="middle" letter-spacing="0.8">POSTGRESQL 14+</text>
<rect x="884.5" y="20" width="83.0" height="18" rx="3" fill="#4f8ef718" stroke="#4f8ef780" stroke-width="0.8"/>
<text x="926.0" y="32.5" font-family="IBM Plex Mono, Courier New, monospace" font-size="7.5" font-weight="500" fill="#4f8ef7" text-anchor="middle" letter-spacing="0.8">ANGULAR 17</text>
<rect x="808.5" y="20" width="70.0" height="18" rx="3" fill="#4f8ef718" stroke="#4f8ef780" stroke-width="0.8"/>
<text x="843.5" y="32.5" font-family="IBM Plex Mono, Courier New, monospace" font-size="7.5" font-weight="500" fill="#4f8ef7" text-anchor="middle" letter-spacing="0.8">REACT 18</text>
<rect x="739.0" y="20" width="63.5" height="18" rx="3" fill="#4f8ef718" stroke="#4f8ef780" stroke-width="0.8"/>
<text x="770.75" y="32.5" font-family="IBM Plex Mono, Courier New, monospace" font-size="7.5" font-weight="500" fill="#4f8ef7" text-anchor="middle" letter-spacing="0.8">NODE.JS</text>
</g>
<g id="Legend">
<rect x="0" y="80" width="1440" height="32" rx="0" fill="#0c0f17"/>
<line x1="0" y1="112" x2="1440" y2="112" stroke="#1a2033" stroke-width="0.8"/>
<circle cx="57" cy="96" r="5" fill="#4f8ef7"/>
<text x="67" y="100" font-family="IBM Plex Mono, Courier New, monospace" font-size="9" fill="#6b7a9e">WLC Domain</text>
<circle cx="147" cy="96" r="5" fill="#e8604c"/>
<text x="157" y="100" font-family="IBM Plex Mono, Courier New, monospace" font-size="9" fill="#6b7a9e">Camunda Domain</text>
<circle cx="261" cy="96" r="5" fill="#a78bfa"/>
<text x="271" y="100" font-family="IBM Plex Mono, Courier New, monospace" font-size="9" fill="#6b7a9e">WLC Datastore</text>
<circle cx="369" cy="96" r="5" fill="#14b8a6"/>
<text x="379" y="100" font-family="IBM Plex Mono, Courier New, monospace" font-size="9" fill="#6b7a9e">API Bridge · 5 calls</text>
<circle cx="519" cy="96" r="5" fill="#ef4444"/>
<text x="529" y="100" font-family="IBM Plex Mono, Courier New, monospace" font-size="9" fill="#6b7a9e">Audit / Immutable</text>
<circle cx="651" cy="96" r="5" fill="#6b7a9e"/>
<text x="661" y="100" font-family="IBM Plex Mono, Courier New, monospace" font-size="9" fill="#6b7a9e">Phase 2</text>
<text x="1388" y="100" font-family="IBM Plex Mono, Courier New, monospace" font-size="8" fill="#232b42" text-anchor="end">↑ Import into Figma · every element is individually editable</text>
</g>
<g id="WLC-Platform-Boundary">
<rect x="40" y="128" width="1360" height="870" rx="14" fill="#4f8ef708" stroke="#4f8ef725" stroke-width="1"/>
<rect x="52" y="119" width="156.5" height="18" rx="4" fill="#07090e" stroke="#4f8ef780" stroke-width="0.8"/>
<text x="62" y="132" font-family="IBM Plex Mono, Courier New, monospace" font-size="8.5" font-weight="500" letter-spacing="1.5" fill="#4f8ef780" text-transform="uppercase">WLC PLATFORM BOUNDARY</text>
<g id="Zone-1-Client-Layer">
<rect x="52" y="148" width="1336" height="140" rx="12" fill="#0c0f17" stroke="#4f8ef750" stroke-width="1"/>
<rect x="72" y="139" width="208.5" height="18" rx="4" fill="#07090e" stroke="#4f8ef7" stroke-width="0.8"/>
<text x="82" y="152" font-family="IBM Plex Mono, Courier New, monospace" font-size="8.5" font-weight="500" letter-spacing="1.5" fill="#4f8ef7" text-transform="uppercase">① CLIENT LAYER — WLC FRONTEND</text>
<g id="Node-React">
<rect x="63" y="180" width="660" height="106" rx="8" fill="#00000040"/>
<rect x="60" y="176" width="660" height="106" rx="8" fill="#10141f" stroke="#4f8ef7" stroke-width="1"/>
<rect x="60" y="186.6" width="2.5" height="84.80000000000001" rx="1" fill="#4f8ef7"/>
<rect x="68" y="176" width="644" height="2" rx="1" fill="#4f8ef7"/>
<circle cx="82" cy="198" r="13" fill="#0d1f3e" opacity="0.8"/>
<text x="82" y="203" font-size="13" text-anchor="middle">⚛</text>
<text x="104" y="194" font-family="Barlow, Inter, sans-serif" font-size="12" font-weight="700" fill="#e8edf7">React 18 SPA</text>
<text x="104" y="207" font-family="IBM Plex Mono, Courier New, monospace" font-size="8" fill="#333d56" letter-spacing="0.5">USEWORKFLOWENGINE · DYNAMICFORM · RENDERFIELD()</text>
<text x="74" y="226" font-family="IBM Plex Mono, Courier New, monospace" font-size="9" fill="#6b7a9e">›  renderField() switches on field.type</text>
<text x="74" y="242" font-family="IBM Plex Mono, Courier New, monospace" font-size="9" fill="#6b7a9e">›  Per-field badges: Orchestration Var / WLC Domain Object</text>
<text x="74" y="258" font-family="IBM Plex Mono, Courier New, monospace" font-size="9" fill="#6b7a9e">›  showWhen conditional field visibility</text>
</g>
<g id="Node-Angular">
<rect x="739" y="180" width="660" height="106" rx="8" fill="#00000040"/>
<rect x="736" y="176" width="660" height="106" rx="8" fill="#10141f" stroke="#4f8ef7" stroke-width="1"/>
<rect x="736" y="186.6" width="2.5" height="84.80000000000001" rx="1" fill="#4f8ef7"/>
<rect x="744" y="176" width="644" height="2" rx="1" fill="#4f8ef7"/>
<circle cx="758" cy="198" r="13" fill="#0d1f3e" opacity="0.8"/>
<text x="758" y="203" font-size="13" text-anchor="middle">🅰</text>
<text x="780" y="194" font-family="Barlow, Inter, sans-serif" font-size="12" font-weight="700" fill="#e8edf7">Angular 17 SPA</text>
<text x="780" y="207" font-family="IBM Plex Mono, Courier New, monospace" font-size="8" fill="#333d56" letter-spacing="0.5">WORKFLOWSTATESERVICE · SIGNALS · REACTIVEFORMSMODULE</text>
<text x="750" y="226" font-family="IBM Plex Mono, Courier New, monospace" font-size="9" fill="#6b7a9e">›  DynamicFieldComponent — one per FormField definition</text>
<text x="750" y="242" font-family="IBM Plex Mono, Courier New, monospace" font-size="9" fill="#6b7a9e">›  WorkflowStateService — Angular Signals reactive state</text>
<text x="750" y="258" font-family="IBM Plex Mono, Courier New, monospace" font-size="9" fill="#6b7a9e">›  ReactiveFormsModule — FormGroup from JSON schema</text>
</g>
</g>
<line x1="720" y1="298" x2="720" y2="330" stroke="#4f8ef7" stroke-width="1"/>
<polygon points="716,326 724,326 720,334" fill="#4f8ef7"/>
<rect x="582.75" y="304" width="274.5" height="16" rx="8" fill="#10141f" stroke="#1a2033" stroke-width="0.8"/>
<text x="720" y="315.5" font-family="IBM Plex Mono, Courier New, monospace" font-size="8" font-weight="400" fill="#333d56" text-anchor="start">HTTPS · form values collected · action selected</text>
<g id="Zone-2-WLC-API-Core-Services">
<rect x="52" y="342" width="1336" height="232" rx="12" fill="#0c0f17" stroke="#4f8ef750" stroke-width="1"/>
<rect x="72" y="333" width="423.0" height="18" rx="4" fill="#07090e" stroke="#4f8ef7" stroke-width="0.8"/>
<text x="82" y="346" font-family="IBM Plex Mono, Courier New, monospace" font-size="8.5" font-weight="500" letter-spacing="1.5" fill="#4f8ef7" text-transform="uppercase">② WLC API SERVER + CORE SERVICES — NODE.JS EXPRESS · PORT 3001</text>
<g id="Node-API-Server">
<rect x="63" y="374" width="434" height="100" rx="8" fill="#00000040"/>
<rect x="60" y="370" width="434" height="100" rx="8" fill="#10141f" stroke="#4f8ef7" stroke-width="1"/>
<rect x="60" y="380.0" width="2.5" height="80.0" rx="1" fill="#4f8ef7"/>
<rect x="68" y="370" width="418" height="2" rx="1" fill="#4f8ef7"/>
<circle cx="82" cy="392" r="13" fill="#0d1f3e" opacity="0.8"/>
<text x="82" y="397" font-size="13" text-anchor="middle">🖥️</text>
<text x="104" y="388" font-family="Barlow, Inter, sans-serif" font-size="12" font-weight="700" fill="#e8edf7">WLC API Server</text>
<text x="104" y="401" font-family="IBM Plex Mono, Courier New, monospace" font-size="8" fill="#333d56" letter-spacing="0.5">EXPRESS.JS · REST BOUNDARY · PORT 3001</text>
<text x="74" y="420" font-family="IBM Plex Mono, Courier New, monospace" font-size="9" fill="#6b7a9e">›  HTTP boundary only — no business logic</text>
<text x="74" y="436" font-family="IBM Plex Mono, Courier New, monospace" font-size="9" fill="#6b7a9e">›  Routes templates → Form Template Engine</text>
<text x="74" y="452" font-family="IBM Plex Mono, Courier New, monospace" font-size="9" fill="#6b7a9e">›  Routes submissions → Submission Orchestrator</text>
</g>
<g id="Node-Form-Template-Engine">
<rect x="513" y="374" width="434" height="100" rx="8" fill="#00000040"/>
<rect x="510" y="370" width="434" height="100" rx="8" fill="#10141f" stroke="#4f8ef7" stroke-width="1"/>
<rect x="510" y="380.0" width="2.5" height="80.0" rx="1" fill="#4f8ef7"/>
<rect x="518" y="370" width="418" height="2" rx="1" fill="#4f8ef7"/>
<circle cx="532" cy="392" r="13" fill="#0d1f3e" opacity="0.8"/>
<text x="532" y="397" font-size="13" text-anchor="middle">📋</text>
<text x="554" y="388" font-family="Barlow, Inter, sans-serif" font-size="12" font-weight="700" fill="#e8edf7">Form Template Engine</text>
<text x="554" y="401" font-family="IBM Plex Mono, Courier New, monospace" font-size="8" fill="#333d56" letter-spacing="0.5">GET /API/WORKFLOWS/:KEY/STEPS/:STEPID/TEMPLATE</text>
<text x="524" y="420" font-family="IBM Plex Mono, Courier New, monospace" font-size="9" fill="#6b7a9e">›  Loads form_definition JSONB from workflow_steps</text>
<text x="524" y="436" font-family="IBM Plex Mono, Courier New, monospace" font-size="9" fill="#6b7a9e">›  Evaluates showWhen conditional visibility rules</text>
<text x="524" y="452" font-family="IBM Plex Mono, Courier New, monospace" font-size="9" fill="#6b7a9e">›  Pre-fills fields on SEND_BACK from prior submission</text>
</g>
<g id="Node-Submission-Orchestrator">
<rect x="963" y="374" width="434" height="100" rx="8" fill="#00000040"/>
<rect x="960" y="370" width="434" height="100" rx="8" fill="#10141f" stroke="#4f8ef7" stroke-width="1"/>
<rect x="960" y="380.0" width="2.5" height="80.0" rx="1" fill="#4f8ef7"/>
<rect x="968" y="370" width="418" height="2" rx="1" fill="#4f8ef7"/>
<circle cx="982" cy="392" r="13" fill="#0d1f3e" opacity="0.8"/>
<text x="982" y="397" font-size="13" text-anchor="middle">📤</text>
<text x="1004" y="388" font-family="Barlow, Inter, sans-serif" font-size="12" font-weight="700" fill="#e8edf7">Submission Orchestrator</text>
<text x="1004" y="401" font-family="IBM Plex Mono, Courier New, monospace" font-size="8" fill="#333d56" letter-spacing="0.5">POST /API/INSTANCES/:INSTANCEID/SUBMIT</text>
<text x="974" y="420" font-family="IBM Plex Mono, Courier New, monospace" font-size="9" fill="#6b7a9e">›  Splits payload on camundaVar flag</text>
<text x="974" y="436" font-family="IBM Plex Mono, Courier New, monospace" font-size="9" fill="#6b7a9e">›  camundaVar=true → orchestration vars → Zeebe</text>
<text x="974" y="452" font-family="IBM Plex Mono, Courier New, monospace" font-size="9" fill="#6b7a9e">›  camundaVar=false → domain object data → WLC DB</text>
</g>
<g id="Node-Workflow-Lifecycle-Manager">
<rect x="63" y="482" width="434" height="100" rx="8" fill="#00000040"/>
<rect x="60" y="478" width="434" height="100" rx="8" fill="#10141f" stroke="#4f8ef7" stroke-width="1"/>
<rect x="60" y="488.0" width="2.5" height="80.0" rx="1" fill="#4f8ef7"/>
<rect x="68" y="478" width="418" height="2" rx="1" fill="#4f8ef7"/>
<circle cx="82" cy="500" r="13" fill="#0d1f3e" opacity="0.8"/>
<text x="82" y="505" font-size="13" text-anchor="middle">🔄</text>
<text x="104" y="496" font-family="Barlow, Inter, sans-serif" font-size="12" font-weight="700" fill="#e8edf7">Workflow Lifecycle Manager</text>
<text x="104" y="509" font-family="IBM Plex Mono, Courier New, monospace" font-size="8" fill="#333d56" letter-spacing="0.5">INSTANCE START · POLL · RECOVER · CANCEL</text>
<text x="74" y="528" font-family="IBM Plex Mono, Courier New, monospace" font-size="9" fill="#6b7a9e">›  POST → starts Camunda instance · registers in WLC DB</text>
<text x="74" y="544" font-family="IBM Plex Mono, Courier New, monospace" font-size="9" fill="#6b7a9e">›  Polls GET /v1/user-tasks for next taskDefinitionId</text>
<text x="74" y="560" font-family="IBM Plex Mono, Courier New, monospace" font-size="9" fill="#6b7a9e">›  taskDefinitionId → triggers Form Template Engine</text>
</g>
<g id="Node-Audit-Log-Writer">
<rect x="513" y="482" width="434" height="100" rx="8" fill="#00000040"/>
<rect x="510" y="478" width="434" height="100" rx="8" fill="#10141f" stroke="#ef4444" stroke-width="1"/>
<rect x="510" y="488.0" width="2.5" height="80.0" rx="1" fill="#ef4444"/>
<rect x="518" y="478" width="418" height="2" rx="1" fill="#ef4444"/>
<circle cx="532" cy="500" r="13" fill="#2a0808" opacity="0.8"/>
<text x="532" y="505" font-size="13" text-anchor="middle">📜</text>
<text x="554" y="496" font-family="Barlow, Inter, sans-serif" font-size="12" font-weight="700" fill="#e8edf7">Audit Log Writer</text>
<text x="554" y="509" font-family="IBM Plex Mono, Courier New, monospace" font-size="8" fill="#333d56" letter-spacing="0.5">WLC_AUDIT_LOG — APPEND-ONLY · IMMUTABLE</text>
<text x="524" y="528" font-family="IBM Plex Mono, Courier New, monospace" font-size="9" fill="#6b7a9e">›  Every submission → immutable audit entry</text>
<text x="524" y="544" font-family="IBM Plex Mono, Courier New, monospace" font-size="9" fill="#6b7a9e">›  Records routing: orchestration vars + domain data</text>
<text x="524" y="560" font-family="IBM Plex Mono, Courier New, monospace" font-size="9" fill="#6b7a9e">›  Persistence outcome recorded synchronously</text>
</g>
<g id="Alert-Sync-Rule">
<rect x="960" y="478" width="434" height="28" rx="6" fill="#f59e0b10" stroke="#f59e0b" stroke-width="0.8"/>
<text x="970" y="496" font-family="IBM Plex Mono, Courier New, monospace" font-size="8.5" fill="#f59e0b">⚡ SYNC RULE: DB write must succeed before Camunda call</text>
</g>
</g>
<line x1="720" y1="590" x2="720" y2="622" stroke="#a78bfa" stroke-width="1"/>
<polygon points="716,618 724,618 720,626" fill="#a78bfa"/>
<rect x="456.25" y="596" width="527.5" height="16" rx="8" fill="#10141f" stroke="#1a2033" stroke-width="0.8"/>
<text x="720" y="607.5" font-family="IBM Plex Mono, Courier New, monospace" font-size="8" font-weight="400" fill="#333d56" text-anchor="start">camundaVar=true → orchestration vars · camundaVar=false → domain object data → WLC PostgreSQL</text>
<g id="Zone-3-WLC-Datastore">
<rect x="52" y="634" width="1336" height="168" rx="12" fill="#0c0f17" stroke="#a78bfa50" stroke-width="1"/>
<rect x="72" y="625" width="533.5" height="18" rx="4" fill="#07090e" stroke="#a78bfa" stroke-width="0.8"/>
<text x="82" y="638" font-family="IBM Plex Mono, Courier New, monospace" font-size="8.5" font-weight="500" letter-spacing="1.5" fill="#a78bfa" text-transform="uppercase">③ WLC DATASTORE — POSTGRESQL 14+  ·  ON-PREM  ·  ISOLATED  ·  NO CAMUNDA ACCESS</text>
<g id="DB-Workflow-Registry">
<rect x="63" y="666" width="434" height="124" rx="8" fill="#00000040"/>
<rect x="60" y="662" width="434" height="124" rx="8" fill="#1e1640" stroke="#a78bfa" stroke-width="1.5"/>
<rect x="60" y="662" width="434" height="124" rx="8" fill="none" stroke="#a78bfa" stroke-width="1" opacity="0.4"/>
<ellipse cx="277.0" cy="662" rx="205.0" ry="7" fill="#1e1640" stroke="#a78bfa" stroke-width="1"/>
<rect x="60" y="674.4" width="2.5" height="99.2" rx="1" fill="#a78bfa"/>
<circle cx="82" cy="682" r="12" fill="#1e1640"/>
<text x="82" y="687" font-size="12" text-anchor="middle">📋</text>
<text x="102" y="679" font-family="Barlow, Inter, sans-serif" font-size="12" font-weight="700" fill="#e8edf7">Workflow Registry</text>
<text x="102" y="691" font-family="IBM Plex Mono, Courier New, monospace" font-size="8" fill="#333d56" letter-spacing="0.5">CAMUNDA_WORKFLOWS · WORKFLOW_STEPS</text>
<text x="74" y="712" font-family="IBM Plex Mono, Courier New, monospace" font-size="9" fill="#6b7a9e">›  camunda_workflows — process definition keys</text>
<text x="74" y="728" font-family="IBM Plex Mono, Courier New, monospace" font-size="9" fill="#6b7a9e">›  workflow_steps — form_definition JSONB (GIN indexed)</text>
<text x="74" y="744" font-family="IBM Plex Mono, Courier New, monospace" font-size="9" fill="#6b7a9e">›  Source of truth for Form Template Engine</text>
<text x="74" y="760" font-family="IBM Plex Mono, Courier New, monospace" font-size="9" fill="#6b7a9e">›  Written by admin API only</text>
</g>
<g id="DB-Domain-Object-Store">
<rect x="513" y="666" width="434" height="124" rx="8" fill="#00000040"/>
<rect x="510" y="662" width="434" height="124" rx="8" fill="#1e1640" stroke="#a78bfa" stroke-width="1.5"/>
<rect x="510" y="662" width="434" height="124" rx="8" fill="none" stroke="#a78bfa" stroke-width="1" opacity="0.4"/>
<ellipse cx="727.0" cy="662" rx="205.0" ry="7" fill="#1e1640" stroke="#a78bfa" stroke-width="1"/>
<rect x="510" y="674.4" width="2.5" height="99.2" rx="1" fill="#a78bfa"/>
<circle cx="532" cy="682" r="12" fill="#1e1640"/>
<text x="532" y="687" font-size="12" text-anchor="middle">📥</text>
<text x="552" y="679" font-family="Barlow, Inter, sans-serif" font-size="12" font-weight="700" fill="#e8edf7">Domain Object Store</text>
<text x="552" y="691" font-family="IBM Plex Mono, Courier New, monospace" font-size="8" fill="#333d56" letter-spacing="0.5">PROCESS_INSTANCES · STEP_SUBMISSIONS</text>
<text x="524" y="712" font-family="IBM Plex Mono, Courier New, monospace" font-size="9" fill="#6b7a9e">›  process_instances — runtime state + current step</text>
<text x="524" y="728" font-family="IBM Plex Mono, Courier New, monospace" font-size="9" fill="#6b7a9e">›  step_submissions.wlc_data — domain object data (JSONB)</text>
<text x="524" y="744" font-family="IBM Plex Mono, Courier New, monospace" font-size="9" fill="#6b7a9e">›  step_submissions.camunda_variables — audit mirror</text>
<text x="524" y="760" font-family="IBM Plex Mono, Courier New, monospace" font-size="9" fill="#6b7a9e">›  Immutable once written — no UPDATE allowed</text>
</g>
<g id="DB-Audit-Store">
<rect x="963" y="666" width="434" height="124" rx="8" fill="#00000040"/>
<rect x="960" y="662" width="434" height="124" rx="8" fill="#2a0808" stroke="#ef4444" stroke-width="1.5"/>
<rect x="960" y="662" width="434" height="124" rx="8" fill="none" stroke="#ef4444" stroke-width="1" opacity="0.4"/>
<ellipse cx="1177.0" cy="662" rx="205.0" ry="7" fill="#2a0808" stroke="#ef4444" stroke-width="1"/>
<rect x="960" y="674.4" width="2.5" height="99.2" rx="1" fill="#ef4444"/>
<circle cx="982" cy="682" r="12" fill="#2a0808"/>
<text x="982" y="687" font-size="12" text-anchor="middle">🔒</text>
<text x="1002" y="679" font-family="Barlow, Inter, sans-serif" font-size="12" font-weight="700" fill="#e8edf7">Audit Store</text>
<text x="1002" y="691" font-family="IBM Plex Mono, Courier New, monospace" font-size="8" fill="#333d56" letter-spacing="0.5">WLC_AUDIT_LOG — UPDATE/DELETE BLOCKED</text>
<text x="974" y="712" font-family="IBM Plex Mono, Courier New, monospace" font-size="9" fill="#6b7a9e">›  18 event types via audit_event_type enum</text>
<text x="974" y="728" font-family="IBM Plex Mono, Courier New, monospace" font-size="9" fill="#6b7a9e">›  PG rules block UPDATE and DELETE structurally</text>
<text x="974" y="744" font-family="IBM Plex Mono, Courier New, monospace" font-size="9" fill="#6b7a9e">›  log_audit_event() — only permitted write path</text>
<text x="974" y="760" font-family="IBM Plex Mono, Courier New, monospace" font-size="9" fill="#6b7a9e">›  GIN index on payload JSONB for incident queries</text>
</g>
</g>
</g>
<g id="Alert-Hard-Isolation">
<rect x="52" y="818" width="1336" height="28" rx="6" fill="#ef444410" stroke="#ef4444" stroke-width="0.8"/>
<text x="62" y="836" font-family="IBM Plex Mono, Courier New, monospace" font-size="8.5" fill="#ef4444">⛔ HARD ISOLATION BOUNDARY: WLC PostgreSQL ≠ Camunda DB · No shared tables · Domain object data NEVER crosses into Camunda — ever</text>
</g>
<line x1="720" y1="854" x2="720" y2="886" stroke="#14b8a6" stroke-width="1"/>
<polygon points="716,882 724,882 720,890" fill="#14b8a6"/>
<rect x="426.0" y="860" width="588.0" height="16" rx="8" fill="#10141f" stroke="#1a2033" stroke-width="0.8"/>
<text x="720" y="871.5" font-family="IBM Plex Mono, Courier New, monospace" font-size="8" font-weight="400" fill="#333d56" text-anchor="start">All WLC writes succeeded → POST Camunda task complete (orchestration vars only) → audit → poll next task</text>
<g id="Zone-4-Camunda-Domain">
<rect x="52" y="898" width="1336" height="340" rx="12" fill="#0c0f17" stroke="#14b8a650" stroke-width="1"/>
<rect x="72" y="889" width="410.0" height="18" rx="4" fill="#07090e" stroke="#14b8a6" stroke-width="0.8"/>
<text x="82" y="902" font-family="IBM Plex Mono, Courier New, monospace" font-size="8.5" font-weight="500" letter-spacing="1.5" fill="#14b8a6" text-transform="uppercase">④ CAMUNDA 8.7 DOMAIN — ON-PREMISES · HARD ISOLATION BOUNDARY</text>
<g id="API-Bridge">
<rect x="60" y="926" width="1320" height="148" rx="8" fill="#14b8a608" stroke="#14b8a640" stroke-width="1"/>
<rect x="60" y="926" width="1320" height="2.5" rx="1" fill="#14b8a6" opacity="0.6"/>
<text x="74" y="942" font-family="Barlow, Inter, sans-serif" font-size="11" font-weight="700" fill="#e8edf7">WLC ↔ Camunda API Bridge — 5 Calls · Workflow Lifecycle Manager Only</text>
<text x="74" y="955" font-family="IBM Plex Mono, Courier New, monospace" font-size="8" fill="#333d56">Only orchestration variables cross this boundary · domain object data NEVER crosses</text>
<rect x="68" y="962" width="1304" height="22" rx="4" fill="#151a28" stroke="#1a2033" stroke-width="0.5"/>
<rect x="74" y="966" width="38" height="14" rx="3" fill="#3ec97a25" stroke="#3ec97a" stroke-width="0.5"/>
<text x="93.0" y="976.5" font-family="IBM Plex Mono, Courier New, monospace" font-size="7.5" font-weight="700" fill="#3ec97a" text-anchor="middle">POST</text>
<text x="120" y="976.5" font-family="IBM Plex Mono, Courier New, monospace" font-size="8.5" fill="#14b8a6">/v1/process-instances</text>
<text x="253.5" y="976.5" font-family="IBM Plex Mono, Courier New, monospace" font-size="8" fill="#333d56">Start Process Instance — returns processInstanceKey</text>
<rect x="68" y="984" width="1304" height="22" rx="4" fill="#151a28" stroke="#1a2033" stroke-width="0.5"/>
<rect x="74" y="988" width="31" height="14" rx="3" fill="#4f8ef725" stroke="#4f8ef7" stroke-width="0.5"/>
<text x="89.5" y="998.5" font-family="IBM Plex Mono, Courier New, monospace" font-size="7.5" font-weight="700" fill="#4f8ef7" text-anchor="middle">GET</text>
<text x="113" y="998.5" font-family="IBM Plex Mono, Courier New, monospace" font-size="8.5" fill="#14b8a6">/v1/user-tasks?processInstanceKey=…</text>
<text x="323.5" y="998.5" font-family="IBM Plex Mono, Courier New, monospace" font-size="8" fill="#333d56">Get Next User Task — returns taskDefinitionId</text>
<rect x="68" y="1006" width="1304" height="22" rx="4" fill="#151a28" stroke="#1a2033" stroke-width="0.5"/>
<rect x="74" y="1010" width="38" height="14" rx="3" fill="#3ec97a25" stroke="#3ec97a" stroke-width="0.5"/>
<text x="93.0" y="1020.5" font-family="IBM Plex Mono, Courier New, monospace" font-size="7.5" font-weight="700" fill="#3ec97a" text-anchor="middle">POST</text>
<text x="120" y="1020.5" font-family="IBM Plex Mono, Courier New, monospace" font-size="8.5" fill="#14b8a6">/v1/tasks/:taskId/complete</text>
<text x="281.0" y="1020.5" font-family="IBM Plex Mono, Courier New, monospace" font-size="8" fill="#333d56">Complete User Task — sends orchestration vars to Zeebe</text>
<rect x="68" y="1028" width="1304" height="22" rx="4" fill="#151a28" stroke="#1a2033" stroke-width="0.5"/>
<rect x="74" y="1032" width="31" height="14" rx="3" fill="#4f8ef725" stroke="#4f8ef7" stroke-width="0.5"/>
<text x="89.5" y="1042.5" font-family="IBM Plex Mono, Courier New, monospace" font-size="7.5" font-weight="700" fill="#4f8ef7" text-anchor="middle">GET</text>
<text x="113" y="1042.5" font-family="IBM Plex Mono, Courier New, monospace" font-size="8.5" fill="#14b8a6">/v1/process-instances/:key</text>
<text x="274.0" y="1042.5" font-family="IBM Plex Mono, Courier New, monospace" font-size="8" fill="#333d56">Get Process Instance State — recovery check</text>
<rect x="68" y="1050" width="1304" height="22" rx="4" fill="#151a28" stroke="#1a2033" stroke-width="0.5"/>
<rect x="74" y="1054" width="31" height="14" rx="3" fill="#ef444425" stroke="#ef4444" stroke-width="0.5"/>
<text x="89.5" y="1064.5" font-family="IBM Plex Mono, Courier New, monospace" font-size="7.5" font-weight="700" fill="#ef4444" text-anchor="middle">DEL</text>
<text x="113" y="1064.5" font-family="IBM Plex Mono, Courier New, monospace" font-size="8.5" fill="#14b8a6">/v1/process-instances/:key</text>
<text x="274.0" y="1064.5" font-family="IBM Plex Mono, Courier New, monospace" font-size="8" fill="#333d56">Cancel Process Instance — withdraw investigation</text>
<g id="Node-Zeebe-Engine">
<rect x="63" y="1092" width="652" height="120" rx="8" fill="#00000040"/>
<rect x="60" y="1088" width="652" height="120" rx="8" fill="#10141f" stroke="#14b8a6" stroke-width="1"/>
<rect x="60" y="1100.0" width="2.5" height="96.0" rx="1" fill="#14b8a6"/>
<rect x="68" y="1088" width="636" height="2" rx="1" fill="#14b8a6"/>
<circle cx="82" cy="1110" r="13" fill="#0a1f1e" opacity="0.8"/>
<text x="82" y="1115" font-size="13" text-anchor="middle">⚙</text>
<text x="104" y="1106" font-family="Barlow, Inter, sans-serif" font-size="12" font-weight="700" fill="#e8edf7">Zeebe Engine</text>
<text x="104" y="1119" font-family="IBM Plex Mono, Courier New, monospace" font-size="8" fill="#333d56" letter-spacing="0.5">BPMN EXECUTION · FEEL GATEWAYS · ALERT-INVESTIGATION-V1</text>
<text x="74" y="1138" font-family="IBM Plex Mono, Courier New, monospace" font-size="9" fill="#6b7a9e">›  Executes alert-investigation-v1.bpmn on-prem</text>
<text x="74" y="1154" font-family="IBM Plex Mono, Courier New, monospace" font-size="9" fill="#6b7a9e">›  FEEL evaluates orchestration vars: action · severity · riskScore</text>
<text x="74" y="1170" font-family="IBM Plex Mono, Courier New, monospace" font-size="9" fill="#6b7a9e">›  SEND_BACK = native loop-back sequence flows</text>
<text x="74" y="1186" font-family="IBM Plex Mono, Courier New, monospace" font-size="9" fill="#6b7a9e">›  Gateway splits: ESCALATE / CLOSE / SEND_BACK</text>
</g>
<g id="Node-Zeebe-Job-Worker">
<rect x="731" y="1092" width="652" height="120" rx="8" fill="#00000040"/>
<rect x="728" y="1088" width="652" height="120" rx="8" fill="#10141f" stroke="#14b8a6" stroke-width="1"/>
<rect x="728" y="1100.0" width="2.5" height="96.0" rx="1" fill="#14b8a6"/>
<rect x="736" y="1088" width="636" height="2" rx="1" fill="#14b8a6"/>
<circle cx="750" cy="1110" r="13" fill="#0a1f1e" opacity="0.8"/>
<text x="750" y="1115" font-size="13" text-anchor="middle">👷</text>
<text x="772" y="1106" font-family="Barlow, Inter, sans-serif" font-size="12" font-weight="700" fill="#e8edf7">Zeebe Job Worker</text>
<text x="772" y="1119" font-family="IBM Plex Mono, Courier New, monospace" font-size="8" fill="#333d56" letter-spacing="0.5">COMPLIANCE-NOTIFY · TRIGGERED ON QA CLOSE PATH ONLY</text>
<text x="742" y="1138" font-family="IBM Plex Mono, Courier New, monospace" font-size="9" fill="#6b7a9e">›  Job type: compliance-notify · retries: 3</text>
<text x="742" y="1154" font-family="IBM Plex Mono, Courier New, monospace" font-size="9" fill="#6b7a9e">›  Triggered only on QA CLOSE + complianceFlag != 'None'</text>
<text x="742" y="1170" font-family="IBM Plex Mono, Courier New, monospace" font-size="9" fill="#6b7a9e">›  Completely isolated from WLC platform code</text>
<text x="742" y="1186" font-family="IBM Plex Mono, Courier New, monospace" font-size="9" fill="#6b7a9e">›  Subscribes to job type in BPMN service task</text>
</g>
</g>
<g id="DB-Camunda-Internal">
<rect x="63" y="1224" width="1320" height="116" rx="8" fill="#00000040"/>
<rect x="60" y="1220" width="1320" height="116" rx="8" fill="#3a1210" stroke="#e8604c" stroke-width="1.5"/>
<rect x="60" y="1220" width="1320" height="116" rx="8" fill="none" stroke="#e8604c" stroke-width="1" opacity="0.4"/>
<ellipse cx="720.0" cy="1220" rx="648.0" ry="7" fill="#3a1210" stroke="#e8604c" stroke-width="1"/>
<rect x="60" y="1231.6" width="2.5" height="92.80000000000001" rx="1" fill="#e8604c"/>
<circle cx="82" cy="1240" r="12" fill="#3a1210"/>
<text x="82" y="1245" font-size="12" text-anchor="middle">🗃</text>
<text x="102" y="1237" font-family="Barlow, Inter, sans-serif" font-size="12" font-weight="700" fill="#e8edf7">Camunda Internal Stores — Hard Isolation Boundary</text>
<text x="102" y="1249" font-family="IBM Plex Mono, Courier New, monospace" font-size="8" fill="#333d56" letter-spacing="0.5">ELASTICSEARCH · ZEEBE ROCKSDB · ORCHESTRATION VARS ONLY · NO DOMAIN OBJECT DATA</text>
<text x="74" y="1270" font-family="IBM Plex Mono, Courier New, monospace" font-size="9" fill="#6b7a9e">›  Process instance state — Zeebe RocksDB</text>
<text x="74" y="1286" font-family="IBM Plex Mono, Courier New, monospace" font-size="9" fill="#6b7a9e">›  Orchestration variables only (camundaVar=true)</text>
<text x="74" y="1302" font-family="IBM Plex Mono, Courier New, monospace" font-size="9" fill="#6b7a9e">›  Task history: created / completed timestamps</text>
<text x="74" y="1318" font-family="IBM Plex Mono, Courier New, monospace" font-size="9" fill="#6b7a9e">›  Visible in Camunda Operate UI and REST API</text>
</g>
</g>
<g id="Zone-5-SOC-Reference-Workflow">
<rect x="52" y="1354" width="1336" height="260" rx="12" fill="#0c0f17" stroke="#14b8a640" stroke-width="1"/>
<rect x="72" y="1345" width="332.0" height="18" rx="4" fill="#07090e" stroke="#14b8a6" stroke-width="0.8"/>
<text x="82" y="1358" font-family="IBM Plex Mono, Courier New, monospace" font-size="8.5" font-weight="500" letter-spacing="1.5" fill="#14b8a6" text-transform="uppercase">⑤ SOC REFERENCE WORKFLOW — L1 → L2 → QA ANALYSIS</text>
<rect x="60" y="1382" width="322" height="232" rx="8" fill="#151a28" stroke="#4f8ef740" stroke-width="1"/>
<rect x="60" y="1382" width="322" height="2" rx="1" fill="#4f8ef7"/>
<text x="70" y="1400" font-family="IBM Plex Mono, Courier New, monospace" font-size="7.5" letter-spacing="1" fill="#333d56">L1 ANALYST</text>
<text x="70" y="1415" font-family="Barlow, Inter, sans-serif" font-size="11" font-weight="700" fill="#e8edf7">L1 Alert Analysis</text>
<rect x="70" y="1425" width="85.5" height="15" rx="3" fill="#3ec97a15" stroke="#3ec97a60" stroke-width="0.7"/>
<text x="112.75" y="1436" font-family="IBM Plex Mono, Courier New, monospace" font-size="7.5" fill="#3ec97a" text-anchor="middle">ESCALATE → L2</text>
<rect x="70" y="1443" width="41.5" height="15" rx="3" fill="#ef444415" stroke="#ef444460" stroke-width="0.7"/>
<text x="90.75" y="1454" font-family="IBM Plex Mono, Courier New, monospace" font-size="7.5" fill="#ef4444" text-anchor="middle">CLOSE</text>
<text x="70" y="1476" font-family="IBM Plex Mono, Courier New, monospace" font-size="7.5" fill="#14b8a6">Orchestration vars → Camunda</text>
<text x="70" y="1488" font-family="IBM Plex Mono, Courier New, monospace" font-size="8" fill="#333d56">action · severity · isFalsePositive · alertSource</text>
<text x="70" y="1504" font-family="IBM Plex Mono, Courier New, monospace" font-size="7.5" fill="#a78bfa">Domain Object Data → WLC DB</text>
<text x="70" y="1520" font-family="IBM Plex Mono, Courier New, monospace" font-size="8" fill="#333d56">›  analyst-record: analystName · initialFindings · affectedAsset</text>
<line x1="390" y1="1498" x2="398" y2="1498" stroke="#232b42" stroke-width="1"/>
<polygon points="394,1495 394,1501 400,1498" fill="#232b42"/>
<rect x="398" y="1382" width="322" height="232" rx="8" fill="#151a28" stroke="#4f8ef740" stroke-width="1"/>
<rect x="398" y="1382" width="322" height="2" rx="1" fill="#4f8ef7"/>
<text x="408" y="1400" font-family="IBM Plex Mono, Courier New, monospace" font-size="7.5" letter-spacing="1" fill="#333d56">L2 ANALYST</text>
<text x="408" y="1415" font-family="Barlow, Inter, sans-serif" font-size="11" font-weight="700" fill="#e8edf7">L2 Alert Analysis</text>
<rect x="408" y="1425" width="85.5" height="15" rx="3" fill="#3ec97a15" stroke="#3ec97a60" stroke-width="0.7"/>
<text x="450.75" y="1436" font-family="IBM Plex Mono, Courier New, monospace" font-size="7.5" fill="#3ec97a" text-anchor="middle">ESCALATE → QA</text>
<rect x="408" y="1443" width="41.5" height="15" rx="3" fill="#ef444415" stroke="#ef444460" stroke-width="0.7"/>
<text x="428.75" y="1454" font-family="IBM Plex Mono, Courier New, monospace" font-size="7.5" fill="#ef4444" text-anchor="middle">CLOSE</text>
<rect x="408" y="1461" width="91.0" height="15" rx="3" fill="#f59e0b15" stroke="#f59e0b60" stroke-width="0.7"/>
<text x="453.5" y="1472" font-family="IBM Plex Mono, Courier New, monospace" font-size="7.5" fill="#f59e0b" text-anchor="middle">SEND_BACK → L1</text>
<text x="408" y="1494" font-family="IBM Plex Mono, Courier New, monospace" font-size="7.5" fill="#14b8a6">Orchestration vars → Camunda</text>
<text x="408" y="1506" font-family="IBM Plex Mono, Courier New, monospace" font-size="8" fill="#333d56">action · attackVector · containmentTaken · riskScore</text>
<text x="408" y="1522" font-family="IBM Plex Mono, Courier New, monospace" font-size="7.5" fill="#a78bfa">Domain Object Data → WLC DB</text>
<text x="408" y="1538" font-family="IBM Plex Mono, Courier New, monospace" font-size="8" fill="#333d56">›  analyst-record: l1SummaryReview · iocList</text>
<text x="408" y="1552" font-family="IBM Plex Mono, Courier New, monospace" font-size="8" fill="#333d56">›  incident-record: affectedSystems</text>
<line x1="728" y1="1498" x2="736" y2="1498" stroke="#232b42" stroke-width="1"/>
<polygon points="732,1495 732,1501 738,1498" fill="#232b42"/>
<rect x="736" y="1382" width="322" height="232" rx="8" fill="#151a28" stroke="#4f8ef740" stroke-width="1"/>
<rect x="736" y="1382" width="322" height="2" rx="1" fill="#4f8ef7"/>
<text x="746" y="1400" font-family="IBM Plex Mono, Courier New, monospace" font-size="7.5" letter-spacing="1" fill="#333d56">QA ANALYST</text>
<text x="746" y="1415" font-family="Barlow, Inter, sans-serif" font-size="11" font-weight="700" fill="#e8edf7">QA Analysis</text>
<rect x="746" y="1425" width="113.0" height="15" rx="3" fill="#ef444415" stroke="#ef444460" stroke-width="0.7"/>
<text x="802.5" y="1436" font-family="IBM Plex Mono, Courier New, monospace" font-size="7.5" fill="#ef4444" text-anchor="middle">CLOSE → compliance</text>
<rect x="746" y="1443" width="91.0" height="15" rx="3" fill="#f59e0b15" stroke="#f59e0b60" stroke-width="0.7"/>
<text x="791.5" y="1454" font-family="IBM Plex Mono, Courier New, monospace" font-size="7.5" fill="#f59e0b" text-anchor="middle">SEND_BACK → L2</text>
<text x="746" y="1476" font-family="IBM Plex Mono, Courier New, monospace" font-size="7.5" fill="#14b8a6">Orchestration vars → Camunda</text>
<text x="746" y="1488" font-family="IBM Plex Mono, Courier New, monospace" font-size="8" fill="#333d56">action · investigationQuality · finalClassification · complianceFlag</text>
<text x="746" y="1504" font-family="IBM Plex Mono, Courier New, monospace" font-size="7.5" fill="#a78bfa">Domain Object Data → WLC DB</text>
<text x="746" y="1520" font-family="IBM Plex Mono, Courier New, monospace" font-size="8" fill="#333d56">›  analyst-record: l1/l2ReviewNotes · lessonsLearned</text>
<text x="746" y="1534" font-family="IBM Plex Mono, Courier New, monospace" font-size="8" fill="#333d56">›  incident-record: sendBackRequest</text>
<line x1="1066" y1="1498" x2="1074" y2="1498" stroke="#232b42" stroke-width="1"/>
<polygon points="1070,1495 1070,1501 1076,1498" fill="#232b42"/>
<rect x="1074" y="1382" width="322" height="232" rx="8" fill="#151a28" stroke="#14b8a640" stroke-width="1"/>
<rect x="1074" y="1382" width="322" height="2" rx="1" fill="#14b8a6"/>
<text x="1084" y="1400" font-family="IBM Plex Mono, Courier New, monospace" font-size="7.5" letter-spacing="1" fill="#333d56">ZEEBE JOB WORKER</text>
<text x="1084" y="1415" font-family="Barlow, Inter, sans-serif" font-size="11" font-weight="700" fill="#e8edf7">Compliance Notification</text>
<rect x="1084" y="1425" width="74.5" height="15" rx="3" fill="#f59e0b15" stroke="#f59e0b60" stroke-width="0.7"/>
<text x="1121.25" y="1436" font-family="IBM Plex Mono, Courier New, monospace" font-size="7.5" fill="#f59e0b" text-anchor="middle">→ End Event</text>
<text x="1084" y="1458" font-family="IBM Plex Mono, Courier New, monospace" font-size="7.5" fill="#14b8a6">Orchestration vars → Camunda</text>
<text x="1084" y="1470" font-family="IBM Plex Mono, Courier New, monospace" font-size="8" fill="#333d56">complianceFlag · finalClassification</text>
<text x="1084" y="1486" font-family="IBM Plex Mono, Courier New, monospace" font-size="7.5" fill="#a78bfa">Domain Object Data → WLC DB</text>
<text x="1084" y="1502" font-family="IBM Plex Mono, Courier New, monospace" font-size="8" fill="#333d56">›  NOT inline WLC code</text>
<text x="1084" y="1516" font-family="IBM Plex Mono, Courier New, monospace" font-size="8" fill="#333d56">›  Zeebe job worker only</text>
</g>
<g id="Zone-6-Submission-Pipeline">
<rect x="52" y="1636" width="1336" height="100" rx="12" fill="#0c0f17" stroke="#4f8ef740" stroke-width="1"/>
<rect x="72" y="1627" width="631.0" height="18" rx="4" fill="#07090e" stroke="#4f8ef7" stroke-width="0.8"/>
<text x="82" y="1640" font-family="IBM Plex Mono, Courier New, monospace" font-size="8.5" font-weight="500" letter-spacing="1.5" fill="#4f8ef7" text-transform="uppercase">⑥ SUBMISSION PIPELINE — FORM SUBMIT → SPLIT → PERSIST (SYNC) → CAMUNDA → AUDIT → NEXT TEMPLATE</text>
<rect x="60" y="1664" width="139" height="66" rx="6" fill="#151a28" stroke="#4f8ef7" stroke-width="1"/>
<text x="129.5" y="1697.0" font-family="IBM Plex Mono, Courier New, monospace" font-size="8.5" font-weight="600" fill="#4f8ef7" text-anchor="middle">User</text>
<text x="129.5" y="1709.0" font-family="IBM Plex Mono, Courier New, monospace" font-size="8.5" font-weight="600" fill="#4f8ef7" text-anchor="middle">submits form</text>
<text x="129.5" y="1723" font-family="IBM Plex Mono, Courier New, monospace" font-size="7.5" fill="#333d56" text-anchor="middle">Frontend</text>
<line x1="201" y1="1697" x2="206" y2="1697" stroke="#232b42" stroke-width="1"/>
<polygon points="204,1694 204,1700 209,1697" fill="#232b42"/>
<rect x="207" y="1664" width="139" height="66" rx="6" fill="#151a28" stroke="#4f8ef7" stroke-width="1"/>
<text x="276.5" y="1697.0" font-family="IBM Plex Mono, Courier New, monospace" font-size="8.5" font-weight="600" fill="#4f8ef7" text-anchor="middle">API</text>
<text x="276.5" y="1709.0" font-family="IBM Plex Mono, Courier New, monospace" font-size="8.5" font-weight="600" fill="#4f8ef7" text-anchor="middle">Server receives</text>
<text x="276.5" y="1723" font-family="IBM Plex Mono, Courier New, monospace" font-size="7.5" fill="#333d56" text-anchor="middle">CORS · CorrelID</text>
<line x1="348" y1="1697" x2="353" y2="1697" stroke="#232b42" stroke-width="1"/>
<polygon points="351,1694 351,1700 356,1697" fill="#232b42"/>
<rect x="354" y="1664" width="139" height="66" rx="6" fill="#151a28" stroke="#4f8ef7" stroke-width="1"/>
<text x="423.5" y="1697.0" font-family="IBM Plex Mono, Courier New, monospace" font-size="8.5" font-weight="600" fill="#4f8ef7" text-anchor="middle">Split</text>
<text x="423.5" y="1709.0" font-family="IBM Plex Mono, Courier New, monospace" font-size="8.5" font-weight="600" fill="#4f8ef7" text-anchor="middle">on camundaVar</text>
<text x="423.5" y="1723" font-family="IBM Plex Mono, Courier New, monospace" font-size="7.5" fill="#333d56" text-anchor="middle">Submission Orch.</text>
<line x1="495" y1="1697" x2="500" y2="1697" stroke="#232b42" stroke-width="1"/>
<polygon points="498,1694 498,1700 503,1697" fill="#232b42"/>
<rect x="501" y="1664" width="139" height="66" rx="6" fill="#151a28" stroke="#a78bfa" stroke-width="1"/>
<text x="570.5" y="1697.0" font-family="IBM Plex Mono, Courier New, monospace" font-size="8.5" font-weight="600" fill="#a78bfa" text-anchor="middle">Write domain</text>
<text x="570.5" y="1709.0" font-family="IBM Plex Mono, Courier New, monospace" font-size="8.5" font-weight="600" fill="#a78bfa" text-anchor="middle">data (sync)</text>
<text x="570.5" y="1723" font-family="IBM Plex Mono, Courier New, monospace" font-size="7.5" fill="#333d56" text-anchor="middle">WLC PostgreSQL</text>
<line x1="642" y1="1697" x2="647" y2="1697" stroke="#232b42" stroke-width="1"/>
<polygon points="645,1694 645,1700 650,1697" fill="#232b42"/>
<rect x="648" y="1664" width="139" height="66" rx="6" fill="#151a28" stroke="#ef4444" stroke-width="1"/>
<text x="717.5" y="1697.0" font-family="IBM Plex Mono, Courier New, monospace" font-size="8.5" font-weight="600" fill="#ef4444" text-anchor="middle">Fail?</text>
<text x="717.5" y="1709.0" font-family="IBM Plex Mono, Courier New, monospace" font-size="8.5" font-weight="600" fill="#ef4444" text-anchor="middle">→ reject</text>
<text x="717.5" y="1723" font-family="IBM Plex Mono, Courier New, monospace" font-size="7.5" fill="#333d56" text-anchor="middle">Sync error</text>
<line x1="789" y1="1697" x2="794" y2="1697" stroke="#232b42" stroke-width="1"/>
<polygon points="792,1694 792,1700 797,1697" fill="#232b42"/>
<rect x="795" y="1664" width="139" height="66" rx="6" fill="#151a28" stroke="#14b8a6" stroke-width="1"/>
<text x="864.5" y="1697.0" font-family="IBM Plex Mono, Courier New, monospace" font-size="8.5" font-weight="600" fill="#14b8a6" text-anchor="middle">POST</text>
<text x="864.5" y="1709.0" font-family="IBM Plex Mono, Courier New, monospace" font-size="8.5" font-weight="600" fill="#14b8a6" text-anchor="middle">task complete</text>
<text x="864.5" y="1723" font-family="IBM Plex Mono, Courier New, monospace" font-size="7.5" fill="#333d56" text-anchor="middle">Orchestration vars</text>
<line x1="936" y1="1697" x2="941" y2="1697" stroke="#232b42" stroke-width="1"/>
<polygon points="939,1694 939,1700 944,1697" fill="#232b42"/>
<rect x="942" y="1664" width="139" height="66" rx="6" fill="#151a28" stroke="#ef4444" stroke-width="1"/>
<text x="1011.5" y="1697.0" font-family="IBM Plex Mono, Courier New, monospace" font-size="8.5" font-weight="600" fill="#ef4444" text-anchor="middle">Write</text>
<text x="1011.5" y="1709.0" font-family="IBM Plex Mono, Courier New, monospace" font-size="8.5" font-weight="600" fill="#ef4444" text-anchor="middle">audit log</text>
<text x="1011.5" y="1723" font-family="IBM Plex Mono, Courier New, monospace" font-size="7.5" fill="#333d56" text-anchor="middle">Append-only</text>
<line x1="1083" y1="1697" x2="1088" y2="1697" stroke="#232b42" stroke-width="1"/>
<polygon points="1086,1694 1086,1700 1091,1697" fill="#232b42"/>
<rect x="1089" y="1664" width="139" height="66" rx="6" fill="#151a28" stroke="#14b8a6" stroke-width="1"/>
<text x="1158.5" y="1697.0" font-family="IBM Plex Mono, Courier New, monospace" font-size="8.5" font-weight="600" fill="#14b8a6" text-anchor="middle">Poll</text>
<text x="1158.5" y="1709.0" font-family="IBM Plex Mono, Courier New, monospace" font-size="8.5" font-weight="600" fill="#14b8a6" text-anchor="middle">GET user-tasks</text>
<text x="1158.5" y="1723" font-family="IBM Plex Mono, Courier New, monospace" font-size="7.5" fill="#333d56" text-anchor="middle">taskDefinitionId</text>
<line x1="1230" y1="1697" x2="1235" y2="1697" stroke="#232b42" stroke-width="1"/>
<polygon points="1233,1694 1233,1700 1238,1697" fill="#232b42"/>
<rect x="1236" y="1664" width="139" height="66" rx="6" fill="#151a28" stroke="#4f8ef7" stroke-width="1"/>
<text x="1305.5" y="1697.0" font-family="IBM Plex Mono, Courier New, monospace" font-size="8.5" font-weight="600" fill="#4f8ef7" text-anchor="middle">Fetch</text>
<text x="1305.5" y="1709.0" font-family="IBM Plex Mono, Courier New, monospace" font-size="8.5" font-weight="600" fill="#4f8ef7" text-anchor="middle">next form_definition</text>
<text x="1305.5" y="1723" font-family="IBM Plex Mono, Courier New, monospace" font-size="7.5" fill="#333d56" text-anchor="middle">Form Tmpl Engine</text>
</g>
<g id="Footer">
<line x1="52" y1="1764" x2="1388" y2="1764" stroke="#1a2033" stroke-width="0.8"/>
<text x="52" y="1780" font-family="IBM Plex Mono, Courier New, monospace" font-size="9" fill="#333d56">WLC · Camunda 8.7 · Datastore Separation Architecture · v2.0 · WLC Engineering</text>
<text x="1388" y="1780" font-family="IBM Plex Mono, Courier New, monospace" font-size="9" fill="#333d56" text-anchor="end">↑ Figma-importable SVG · every group is an editable layer</text>
</g>
</svg>